<?xml version="1.0" encoding="UTF-8"?>
<svg version="1.1" xmlns="http://www.w3.org/2000/svg" width="619" height="626">
<path d="M0 0 C204.27 0 408.54 0 619 0 C619 206.58 619 413.16 619 626 C414.73 626 210.46 626 0 626 C0 419.42 0 212.84 0 0 Z " fill="#1C1C1C" transform="translate(0,0)"/>
<path d="M0 0 C1.44458372 -0.00373896 2.88916542 -0.00834146 4.33374393 -0.01373065 C8.29480622 -0.02594602 12.25578395 -0.0257019 16.21686077 -0.02334189 C20.49243148 -0.02293335 24.76797522 -0.03397658 29.04353333 -0.04345703 C37.41768532 -0.06006078 45.79180916 -0.06556633 54.16597624 -0.06668179 C60.97538955 -0.06763271 67.78479358 -0.07174521 74.59420395 -0.07808304 C93.91047047 -0.09569496 113.22671478 -0.10492217 132.54298939 -0.10342209 C133.58405161 -0.10334218 134.62511383 -0.10326227 135.69772339 -0.10317993 C136.74006063 -0.10309817 137.78239787 -0.10301641 138.85632108 -0.10293217 C155.74093244 -0.10211963 172.62545452 -0.12124926 189.51004006 -0.14945666 C206.85715116 -0.17820745 224.20421876 -0.1919957 241.55135429 -0.19026911 C251.28630015 -0.18960589 261.02115245 -0.19506812 270.75607681 -0.21662521 C279.046443 -0.23486605 287.33667323 -0.23916067 295.62705083 -0.22560637 C299.85351131 -0.2190909 304.07971118 -0.21890775 308.30614662 -0.23631287 C312.18272567 -0.25211233 316.05883898 -0.24911061 319.93540715 -0.2317446 C321.33044228 -0.22868969 322.72551278 -0.23224961 324.12050618 -0.24346475 C337.25483881 -0.34198212 348.44694778 2.0850569 358.92037964 10.26742554 C359.74280151 10.86426147 360.56522339 11.46109741 361.41256714 12.07601929 C364.28207051 14.58348251 366.03964072 17.09321352 368.04537964 20.32992554 C368.70795776 21.3727771 369.37053589 22.41562866 370.05319214 23.49008179 C376.10484343 34.91497146 375.3480844 47.18415352 375.30856323 59.73641968 C375.31263308 61.908984 375.31797727 64.08154625 375.32449341 66.25410461 C375.33812277 72.13002235 375.33288664 78.00578134 375.32335615 83.88170171 C375.31573782 90.0429496 375.3228111 96.20418429 375.32751465 102.36543274 C375.33296546 112.70917185 375.32579784 123.0528466 375.31149292 133.39657593 C375.29516344 145.34191387 375.30045988 157.2870982 375.31697214 169.23243243 C375.33060105 179.50450103 375.3324999 189.7765235 375.32465613 200.04859823 C375.31998792 206.17670708 375.31933144 212.30474381 375.32926559 218.43284798 C375.33795354 224.19412337 375.3318798 229.95520132 375.31458282 235.71645546 C375.31062796 237.82632368 375.31173483 239.93620861 375.31837082 242.0460701 C375.32661586 244.93457584 375.31622913 247.82245594 375.30133057 250.71092224 C375.30802273 251.53808103 375.3147149 252.36523982 375.32160985 253.21746403 C375.20524234 264.91544556 370.62179724 276.09006351 362.67428589 284.70101929 C358.68526686 288.36714976 354.84633038 290.97628566 349.92037964 293.26742554 C349.26037964 293.96867554 348.60037964 294.66992554 347.92037964 295.39242554 C344.14075865 298.93582021 338.7245805 298.39297386 333.76794338 298.3988533 C332.54830912 298.40269445 331.32867486 298.40653559 330.07208198 298.41049314 C328.72703511 298.409713 327.38198828 298.40883423 326.03694153 298.40786743 C324.60147207 298.41045273 323.16600332 298.41346635 321.73053557 298.41687083 C317.79003675 298.42492485 313.84955618 298.42672951 309.90905011 298.4274683 C305.6573285 298.42932167 301.4056163 298.43687048 297.15390015 298.44360352 C287.85822578 298.45717648 278.56255574 298.46321008 269.26687312 298.46761417 C263.45984668 298.47037861 257.6528219 298.47461636 251.84579659 298.47911835 C235.76029916 298.49131016 219.67480306 298.50160932 203.58930111 298.50499344 C202.04547817 298.50532279 202.04547817 298.50532279 200.47046689 298.50565879 C199.43881961 298.50587707 198.40717233 298.50609535 197.34426302 298.50632024 C195.25383119 298.5067637 193.16339936 298.50721026 191.07296753 298.50765991 C190.03604602 298.50788134 188.99912451 298.50810277 187.93078113 298.50833091 C171.13665587 298.5122772 154.34257404 298.52972644 137.54846554 298.55301943 C120.29631177 298.57675407 103.04417977 298.58919627 85.79200941 298.59036136 C76.10960083 298.59127698 66.42724884 298.59700087 56.74485588 298.61518097 C48.49840354 298.63061054 40.25202527 298.63568563 32.00556123 298.62744287 C27.801425 298.62354633 23.5974378 298.62441699 19.39332008 298.63850021 C15.53712794 298.65129926 11.6811959 298.64998945 7.82500381 298.6379095 C5.78495243 298.63504762 3.74489629 298.64684264 1.70488113 298.65933156 C-12.78028447 298.58222043 -25.6658709 295.87682566 -36.65383911 285.93930054 C-45.98655002 276.12838461 -50.39637651 265.42515863 -50.3470459 252.00921631 C-50.35157701 251.09769196 -50.35610812 250.18616761 -50.36077654 249.24702132 C-50.37340067 246.2034777 -50.37180143 243.16011348 -50.37014771 240.11654663 C-50.3761343 237.92973603 -50.38294015 235.74292754 -50.39050293 233.55612183 C-50.40815948 227.62195711 -50.41285825 221.68785008 -50.4141345 215.75366163 C-50.41555717 212.0426737 -50.41982902 208.33170039 -50.42512894 204.62071609 C-50.4426756 192.33231289 -50.45196932 180.04394486 -50.45046799 167.75552897 C-50.45038808 167.09381519 -50.45030816 166.43210141 -50.45022583 165.75033569 C-50.45014407 165.08780653 -50.45006231 164.42527737 -50.44997807 163.74267156 C-50.4492165 153.68397472 -50.46479147 143.62540223 -50.49124146 133.56674194 C-50.52189919 121.86756664 -50.53875578 110.1684832 -50.53731501 98.46926558 C-50.5368062 92.28339501 -50.54244426 86.09768365 -50.56367111 79.91184616 C-50.58310659 74.08902949 -50.5831415 68.266523 -50.56863785 62.44369507 C-50.56655506 60.31411915 -50.5712188 58.18452356 -50.58335876 56.05498123 C-50.65241811 43.09482871 -50.21249226 32.00820527 -44.07962036 20.26742554 C-43.41962036 20.26742554 -42.75962036 20.26742554 -42.07962036 20.26742554 C-41.74317505 19.17107788 -41.74317505 19.17107788 -41.39993286 18.05258179 C-37.92643285 10.72534656 -28.596748 5.03613858 -21.07962036 2.26742554 C-20.17279573 1.92739187 -19.26597111 1.58735821 -18.33166695 1.23702049 C-12.37221804 -0.43197069 -6.13612924 -0.01503741 0 0 Z " fill="#CF150F" transform="translate(146.07962036132813,163.73257446289063)"/>
<path d="M0 0 C0.67286212 2.41509441 1.33846012 4.83180356 2 7.25 C2.19078125 7.93191406 2.3815625 8.61382812 2.578125 9.31640625 C3.49957044 12.70600912 4 15.45778976 4 19 C-8.53306246 22.54095796 -21.20371329 25.28854538 -33.9375 28 C-37.92648859 28.85089841 -41.91486056 29.70457356 -45.90234375 30.5625 C-47.34762955 30.87344604 -47.34762955 30.87344604 -48.82211304 31.19067383 C-54.41013255 32.40420729 -59.9652858 33.70355151 -65.50390625 35.125 C-71.74825566 36.72365925 -78.01147049 38.03842548 -84.33789062 39.26708984 C-90.34300488 40.46891338 -96.29255004 41.89601823 -102.25 43.3125 C-104.90836919 43.93957113 -107.56735658 44.56398747 -110.2265625 45.1875 C-110.88904999 45.34289749 -111.55153748 45.49829498 -112.23410034 45.65840149 C-119.403572 47.33563682 -126.59121262 48.92715618 -133.78295898 50.50561523 C-141.28657034 52.1584915 -148.77586082 53.86634701 -156.26171875 55.59765625 C-159.27529444 56.2920269 -162.28897421 56.98594436 -165.30267334 57.67977905 C-167.2980471 58.1406779 -169.29288834 58.6038887 -171.28717041 59.06948853 C-174.10288707 59.72667003 -176.92036154 60.37577782 -179.73828125 61.0234375 C-180.58404221 61.22312637 -181.42980316 61.42281525 -182.30119324 61.6285553 C-186.62497349 62.61416417 -190.53068504 63.22804007 -195 63 C-197.59444614 57.25515498 -199 51.29075036 -199 45 C-190.73093382 42.32755784 -182.51300867 40.10615007 -174 38.375 C-171.5556243 37.86372247 -169.11164252 37.35055949 -166.66796875 36.8359375 C-165.67412422 36.62720001 -165.67412422 36.62720001 -164.66020203 36.41424561 C-154.86172211 34.34939937 -145.08780712 32.17138644 -135.3125 30 C-134.325914 29.781091 -133.339328 29.56218201 -132.32284546 29.3366394 C-120.70105341 26.75527675 -109.10481552 24.10396998 -97.54516602 21.25561523 C-86.58171164 18.59198847 -75.53346906 16.31524548 -64.49658203 13.97988892 C-51.70744155 11.27040496 -38.98439485 8.38347976 -26.29077148 5.2578125 C-4.89631733 0 -4.89631733 0 0 0 Z " fill="#FCF7F7" transform="translate(406,328)"/>
<path d="M0 0 C5.84082794 3.3311851 10.46353124 8.77731246 12.58984375 15.15625 C13.55760779 22.5186068 12.5861864 27.79267969 8.44921875 33.98828125 C5.63145265 37.27370181 2.45636121 39.28394988 -1.41015625 41.15625 C-2.40015625 41.65125 -2.40015625 41.65125 -3.41015625 42.15625 C-10.39407377 42.90836419 -15.9635276 42.83541459 -21.7265625 38.58203125 C-27.01857256 34.1003986 -30.03628798 30.87319616 -30.74609375 23.81640625 C-30.87587708 11.86336115 -30.87587708 11.86336115 -26.41015625 7.15625 C-25.62640625 6.269375 -24.84265625 5.3825 -24.03515625 4.46875 C-17.25747155 -1.50206747 -8.67186561 -3.03585571 0 0 Z " fill="#FDF9F9" transform="translate(257.41015625,234.84375)"/>
<path d="M0 0 C4.31496925 2.88921892 7.27729181 6.67087141 9.234375 11.49609375 C10.11270844 18.2778414 10.37038588 24.70390125 6.609375 30.62109375 C3.13576487 35.03906597 -0.39238482 37.70501369 -5.765625 39.49609375 C-18.95009966 40.81956706 -18.95009966 40.81956706 -24.390625 36.80859375 C-26.21875 35.140625 -26.21875 35.140625 -27.765625 33.49609375 C-28.549375 32.67109375 -29.333125 31.84609375 -30.140625 30.99609375 C-33.7176441 25.49298745 -34.61979714 19.93523755 -33.765625 13.49609375 C-31.55703207 5.94773816 -25.94628592 0.96161173 -19.328125 -2.94140625 C-11.96859833 -4.5569121 -6.62721088 -3.63261715 0 0 Z " fill="#FDFAFA" transform="translate(381.765625,239.50390625)"/>
<path d="M0 0 C2.475 0.495 2.475 0.495 5 1 C5 1.66 5 2.32 5 3 C7.97 3.33 10.94 3.66 14 4 C14 4.99 14 5.98 14 7 C15.31424485 6.99484627 16.6284897 6.98969254 17.98256016 6.98438263 C49.68915611 6.86013135 81.39575909 6.73786485 113.10237122 6.61781773 C117.06572475 6.60281012 121.02907821 6.58778687 124.99243164 6.57275391 C125.78095937 6.56976329 126.56948709 6.56677268 127.3819096 6.56369144 C138.36109477 6.52201898 149.34027642 6.47951251 160.31945567 6.43630803 C179.28718134 6.36166852 198.25491279 6.2887333 217.22265625 6.21875 C217.96471205 6.21600838 218.70676786 6.21326676 219.4713102 6.21044207 C273.31430663 6.01183601 327.15660645 5.93167537 381 6 C378.40366762 9.31753582 376.071119 9.48844304 372 10 C369.95061457 10.08814096 367.89884226 10.12899459 365.84756374 10.13142776 C364.62792948 10.13526891 363.40829522 10.13911005 362.15170234 10.1430676 C360.80665547 10.14228746 359.46160865 10.1414087 358.11656189 10.14044189 C356.68109243 10.1430272 355.24562368 10.14604082 353.81015593 10.1494453 C349.86965712 10.15749931 345.92917654 10.15930398 341.98867047 10.16004276 C337.73694887 10.16189613 333.48523666 10.16944494 329.23352051 10.17617798 C319.93784615 10.18975094 310.6421761 10.19578454 301.34649348 10.20018864 C295.53946704 10.20295308 289.73244226 10.20719083 283.92541695 10.21169281 C267.83991952 10.22388463 251.75442342 10.23418379 235.66892147 10.2375679 C234.12509853 10.23789725 234.12509853 10.23789725 232.55008725 10.23823325 C231.51843997 10.23845153 230.48679269 10.23866981 229.42388338 10.2388947 C227.33345155 10.23933816 225.24301972 10.23978473 223.15258789 10.24023438 C222.11566638 10.2404558 221.07874487 10.24067723 220.01040149 10.24090537 C203.21627623 10.24485166 186.4221944 10.2623009 169.6280859 10.2855939 C152.37593213 10.30932853 135.12380013 10.32177073 117.87162977 10.32293582 C108.1892212 10.32385145 98.5068692 10.32957533 88.82447624 10.34775543 C80.5780239 10.363185 72.33164563 10.36826009 64.08518159 10.36001733 C59.88104536 10.3561208 55.67705817 10.35699145 51.47294044 10.37107468 C47.6167483 10.38387372 43.76081626 10.38256392 39.90462417 10.37048396 C37.86457279 10.36762209 35.82451665 10.3794171 33.78450149 10.39190602 C21.3748127 10.3258436 10.12237853 8.63177072 0 1 C0 0.67 0 0.34 0 0 Z " fill="#9E1713" transform="translate(114,452)"/>
<path d="M0 0 C1.45816463 -0.00174794 2.91632802 -0.00525692 4.37448478 -0.01035666 C8.34948908 -0.01923695 12.32405655 -0.00338977 16.29900527 0.01675558 C20.59740208 0.0341173 24.89577657 0.02817774 29.19419861 0.02514648 C36.63091055 0.02305461 44.06748153 0.0355466 51.50415802 0.05809784 C62.25616452 0.09068129 73.00810323 0.10103134 83.76015374 0.10604981 C101.20690133 0.11479252 118.65357388 0.14138028 136.10028076 0.17926025 C153.04265977 0.21600686 169.98501836 0.24430565 186.9274292 0.2612915 C187.97271197 0.2623424 189.01799473 0.26339329 190.09495273 0.26447603 C195.339114 0.26969639 200.58327541 0.27475117 205.82743692 0.27972364 C249.29555271 0.3211538 292.76358668 0.39157431 336.23162842 0.48101807 C336.23162842 0.81101807 336.23162842 1.14101807 336.23162842 1.48101807 C335.13539244 1.48305286 335.13539244 1.48305286 334.01701027 1.48512876 C290.70263558 1.56577849 247.38829304 1.65673297 204.07396859 1.76106968 C198.87318546 1.77358855 193.67240212 1.78602132 188.47161865 1.79840088 C187.43623612 1.80086687 186.40085359 1.80333287 185.33409583 1.80587359 C168.56924833 1.84559748 151.8043941 1.87834646 135.03952701 1.90851788 C117.83728453 1.93963169 100.63507064 1.97824082 83.43286031 2.02380812 C72.81816171 2.05168938 62.20348402 2.07372402 51.58875864 2.08828057 C44.30988984 2.09882253 37.03106154 2.11664487 29.75222326 2.1401851 C25.55271927 2.1535518 21.35327206 2.16371531 17.15374565 2.1652317 C13.30618591 2.16669195 9.45876282 2.17733004 5.61124509 2.19515248 C4.22213822 2.19998764 2.83301483 2.20150499 1.44390131 2.19929688 C-12.31798208 2.16474766 -12.31798208 2.16474766 -24.76837158 7.48101807 C-31.21281603 10.48101807 -31.21281603 10.48101807 -34.76837158 10.48101807 C-24.46992705 1.39415525 -13.35182849 -0.12037447 0 0 Z " fill="#E32C2C" transform="translate(146.76837158203125,163.51898193359375)"/>
<path d="M0 0 C-4.76587005 3.1772467 -9.57886453 3.12506143 -15.18874931 3.12304783 C-17.03022633 3.1260344 -17.03022633 3.1260344 -18.90890491 3.12908131 C-20.26290905 3.12622865 -21.61691299 3.12328307 -22.97091675 3.12025452 C-24.4156506 3.12069074 -25.86038437 3.12156658 -27.30511773 3.12284368 C-31.27072102 3.12507864 -35.23629729 3.121081 -39.20189714 3.11606562 C-43.47995025 3.11174699 -47.75800184 3.11320855 -52.03605652 3.1139679 C-59.44662716 3.11449223 -66.85718899 3.11135483 -74.26775742 3.10573006 C-84.9821943 3.09760287 -95.69662692 3.09499858 -106.41106655 3.09374207 C-123.79455459 3.09155347 -141.17803794 3.08489857 -158.56152344 3.07543945 C-175.44791643 3.06626038 -192.33430814 3.05918196 -209.22070312 3.05493164 C-210.26158824 3.05466892 -211.30247336 3.05440619 -212.37490045 3.05413551 C-217.5967175 3.05283047 -222.81853456 3.05156676 -228.04035163 3.05032361 C-271.36023767 3.03995697 -314.68011859 3.02234386 -358 3 C-358 2.67 -358 2.34 -358 2 C-357.26592088 1.99864347 -356.53184176 1.99728694 -355.77551782 1.99588931 C-312.28597174 1.91527177 -268.79645778 1.82433056 -225.30696192 1.71994839 C-220.0872912 1.70742924 -214.86762027 1.69499651 -209.64794922 1.68261719 C-208.60878914 1.68015119 -207.56962906 1.6776852 -206.49897929 1.67514448 C-189.66420656 1.63540065 -172.8294271 1.6026605 -155.99463479 1.57250018 C-138.72573607 1.54140657 -121.45686595 1.50280614 -104.18799937 1.45720994 C-93.5287633 1.42930304 -82.8695482 1.40727954 -72.21028538 1.39273749 C-64.90480687 1.38221047 -57.5993689 1.36440405 -50.29392092 1.34083296 C-46.07656118 1.32744184 -41.85925837 1.317299 -37.64187622 1.31578636 C-33.78152031 1.31433103 -29.92130157 1.30374375 -26.06098779 1.28586559 C-24.66385899 1.28101203 -23.26671366 1.27952173 -21.86957817 1.28172119 C-19.97075269 1.2842199 -18.07192376 1.27329266 -16.17313194 1.26171303 C-14.59083733 1.25829554 -14.59083733 1.25829554 -12.97657716 1.25480902 C-8.2281681 0.84832285 -4.65404749 -1.79001826 0 0 Z " fill="#611110" transform="translate(495,459)"/>
<path d="M0 0 C0.33 0 0.66 0 1 0 C1.125 6.625 1.125 6.625 0 10 C-0.10611871 12.91189132 -0.1548563 15.80046135 -0.15821838 18.71281433 C-0.16315636 19.61375912 -0.16809434 20.51470392 -0.17318195 21.44295007 C-0.18858895 24.4739277 -0.19692625 27.5048841 -0.20532227 30.53588867 C-0.21489827 32.70379321 -0.22490819 34.87169587 -0.23532104 37.03959656 C-0.26240623 42.93591309 -0.28339622 48.83223766 -0.30332303 54.72858214 C-0.32516031 60.88655936 -0.35256003 67.0445117 -0.37937927 73.20246887 C-0.42933674 84.868375 -0.47426423 96.53429491 -0.51740164 108.20022804 C-0.56674793 121.47938451 -0.62167572 134.75851502 -0.67708123 148.0376476 C-0.79094815 175.35840847 -0.89777692 202.67919326 -1 230 C-1.33 230 -1.66 230 -2 230 C-2.04562672 201.56586276 -2.08102015 173.13173012 -2.10213066 144.69756343 C-2.10463207 141.34053051 -2.10722071 137.98349766 -2.10986328 134.62646484 C-2.1103879 133.958141 -2.11091252 133.28981715 -2.11145304 132.60124107 C-2.12015528 121.78031789 -2.13592426 110.95941596 -2.15430559 100.13850538 C-2.17300968 89.03497679 -2.1839681 77.93145686 -2.18817699 66.82791293 C-2.19078667 60.59134309 -2.19692981 54.35482146 -2.21146011 48.11826706 C-2.22502248 42.2496832 -2.22922534 36.38116747 -2.22621536 30.51256943 C-2.22676613 28.35748423 -2.23075154 26.20239679 -2.23841095 24.04732513 C-2.24835103 21.10661059 -2.2459722 18.16615377 -2.24050903 15.22543335 C-2.24633472 14.37133798 -2.2521604 13.51724261 -2.25816262 12.63726556 C-2.23498524 8.02619284 -1.76422636 4.34069304 0 0 Z " fill="#AD2522" transform="translate(98,195)"/>
<path d="M0 0 C1.485 0.99 1.485 0.99 3 2 C2.83628906 2.50781006 2.67257813 3.01562012 2.50390625 3.53881836 C1.83091753 6.82583351 1.89685399 10.04117149 1.9375 13.37890625 C1.94605302 14.86482696 1.95451305 16.35074821 1.96289062 17.83666992 C1.96909424 18.60981537 1.97529785 19.38296082 1.98168945 20.17953491 C2.0839382 33.48635729 1.99272453 46.72230942 1 60 C0.67 60 0.34 60 0 60 C0 40.2 0 20.4 0 0 Z " fill="#EC170E" transform="translate(97,207)"/>
<path d="M0 0 C0.33 0 0.66 0 1 0 C1.125 6.625 1.125 6.625 0 10 C-0.11553891 11.73277162 -0.17645135 13.46943121 -0.20532227 15.20581055 C-0.22526749 16.26668381 -0.24521271 17.32755707 -0.26576233 18.420578 C-0.28247482 19.56440445 -0.29918732 20.7082309 -0.31640625 21.88671875 C-0.33718735 23.05886429 -0.35796844 24.23100983 -0.37937927 25.43867493 C-0.44483818 29.18822286 -0.50374296 32.93784163 -0.5625 36.6875 C-0.60568868 39.22722091 -0.64930308 41.76693462 -0.69335938 44.30664062 C-0.80051586 50.53768522 -0.9022892 56.76880051 -1 63 C-1.33 63 -1.66 63 -2 63 C-2.04644315 55.67177576 -2.08192987 48.34358351 -2.10362434 41.01524162 C-2.11403924 37.61199603 -2.12815619 34.2088515 -2.15087891 30.80566406 C-2.176867 26.88868439 -2.18649178 22.97174493 -2.1953125 19.0546875 C-2.21079636 17.23093094 -2.21079636 17.23093094 -2.22659302 15.37033081 C-2.22674408 14.22960114 -2.22689514 13.08887146 -2.22705078 11.91357422 C-2.231492 10.91429901 -2.23593323 9.9150238 -2.24050903 8.88546753 C-1.97285778 5.67436574 -1.12743827 3.00830533 0 0 Z " fill="#CB2D25" transform="translate(98,195)"/>
<path d="M0 0 C2.78564948 1.39282474 2.8489485 2.91666043 3.875 5.8125 C5.36554503 9.67687599 6.5422597 12.51474916 10 15 C12.1381966 15.7872678 12.1381966 15.7872678 14 16 C13.67 17.32 13.34 18.64 13 20 C13.66 20 14.32 20 15 20 C15.66 21.98 16.32 23.96 17 26 C8.82023883 22.42023581 4.18010505 13.98352733 1 6 C0.1875 2.375 0.1875 2.375 0 0 Z " fill="#9B1815" transform="translate(97,426)"/>
<path d="M0 0 C1.8984375 0.82421875 1.8984375 0.82421875 4.4609375 2.32421875 C4.4609375 2.98421875 4.4609375 3.64421875 4.4609375 4.32421875 C5.7809375 4.32421875 7.1009375 4.32421875 8.4609375 4.32421875 C8.7909375 6.63421875 9.1209375 8.94421875 9.4609375 11.32421875 C8.8421875 10.60234375 8.2234375 9.88046875 7.5859375 9.13671875 C2.803814 4.40863055 -3.43564904 1.04923634 -10.2265625 0.88671875 C-14.21447676 1.12088453 -17.76641781 2.03991417 -21.5390625 3.32421875 C-21.5390625 2.66421875 -21.5390625 2.00421875 -21.5390625 1.32421875 C-15.82482152 -2.3068559 -6.39938658 -1.70322135 0 0 Z " fill="#D52E2E" transform="translate(379.5390625,235.67578125)"/>
<path d="M0 0 C1.23556641 0.01740234 1.23556641 0.01740234 2.49609375 0.03515625 C3.32238281 0.04417969 4.14867187 0.05320312 5 0.0625 C5.63808594 0.07410156 6.27617187 0.08570313 6.93359375 0.09765625 C1.70043087 2.99975405 -4.15663104 3.90132508 -9.94140625 5.22265625 C-11.11316406 5.49980469 -12.28492188 5.77695312 -13.4921875 6.0625 C-15.19568359 6.45501953 -15.19568359 6.45501953 -16.93359375 6.85546875 C-17.96597168 7.09410645 -18.99834961 7.33274414 -20.06201172 7.57861328 C-23.12435806 8.10766808 -25.96522417 8.18966744 -29.06640625 8.09765625 C-29.39640625 7.43765625 -29.72640625 6.77765625 -30.06640625 6.09765625 C-28.78765625 5.97390625 -27.50890625 5.85015625 -26.19140625 5.72265625 C-17.54346774 5.29527701 -17.54346774 5.29527701 -10.06640625 2.09765625 C-6.56640625 1.59765625 -6.56640625 1.59765625 -3.06640625 1.09765625 C-2.06640625 0.09765625 -2.06640625 0.09765625 0 0 Z " fill="#B82D29" transform="translate(347.06640625,338.90234375)"/>
<path d="M0 0 C2.05078125 0.03255208 4.1015625 0.06510417 6.15234375 0.09765625 C6.15234375 0.42765625 6.15234375 0.75765625 6.15234375 1.09765625 C1.68944842 2.12579571 -2.77619771 3.14059044 -7.24487305 4.14331055 C-8.76359926 4.48603983 -10.28152055 4.83235701 -11.79858398 5.18237305 C-13.98347825 5.68580821 -16.17097344 6.17613002 -18.359375 6.6640625 C-19.03352951 6.82234024 -19.70768402 6.98061798 -20.40226746 7.14369202 C-24.20128597 7.97566563 -27.09573309 8.18631352 -30.84765625 7.09765625 C-30.84765625 6.76765625 -30.84765625 6.43765625 -30.84765625 6.09765625 C-29.55988281 5.89269531 -28.27210938 5.68773437 -26.9453125 5.4765625 C-25.26689262 5.20463973 -23.58850905 4.93249274 -21.91015625 4.66015625 C-21.06001953 4.52544922 -20.20988281 4.39074219 -19.33398438 4.25195312 C-18.52509766 4.11982422 -17.71621094 3.98769531 -16.8828125 3.8515625 C-15.75951538 3.67089233 -15.75951538 3.67089233 -14.61352539 3.48657227 C-12.83056775 3.26005721 -12.83056775 3.26005721 -11.84765625 2.09765625 C-9.52948536 1.77667874 -7.20986268 1.58544669 -4.87890625 1.37890625 C-2.58735918 1.06161512 -2.26153523 0.11953146 0 0 Z " fill="#B2201D" transform="translate(241.84765625,362.90234375)"/>
<path d="M0 0 C0 0.33 0 0.66 0 1 C-1.53720703 1.27263672 -1.53720703 1.27263672 -3.10546875 1.55078125 C-4.4662429 1.80416678 -5.82691473 2.0581022 -7.1875 2.3125 C-8.19780273 2.48942383 -8.19780273 2.48942383 -9.22851562 2.66992188 C-13.4117558 3.46575781 -16.47555871 4.63807076 -20 7 C-26.44444444 10 -26.44444444 10 -30 10 C-21.30809164 2.3306691 -11.55512523 -0.92031971 0 0 Z " fill="#DB2823" transform="translate(142,164)"/>
<path d="M0 0 C-6.43950689 2.89038409 -11.96725041 4.44184527 -19 5 C-19.33 5.33 -19.66 5.66 -20 6 C-22.67058851 6.14115161 -25.32432238 6.04247107 -28 6 C-23.2313777 3.3952146 -18.13797632 2.49515345 -12.875 1.3125 C-11.86050781 1.07466797 -10.84601563 0.83683594 -9.80078125 0.59179688 C-8.83269531 0.37201172 -7.86460937 0.15222656 -6.8671875 -0.07421875 C-5.98144043 -0.27619873 -5.09569336 -0.47817871 -4.18310547 -0.6862793 C-2 -1 -2 -1 0 0 Z " fill="#B52E29" transform="translate(361,359)"/>
<path d="M0 0 C-0.33 0.99 -0.66 1.98 -1 3 C-3.51171875 3.984375 -3.51171875 3.984375 -6.6875 4.75 C-8.24017578 5.14445312 -8.24017578 5.14445312 -9.82421875 5.546875 C-13.16996737 6.02425119 -15.71767399 5.72831222 -19 5 C-15.58198514 3.06368617 -12.19643832 2.22900089 -8.375 1.375 C-7.22773438 1.11460937 -6.08046875 0.85421875 -4.8984375 0.5859375 C-2 0 -2 0 0 0 Z " fill="#B61E20" transform="translate(263,380)"/>
<path d="M0 0 C0.33 0.66 0.66 1.32 1 2 C-5.46008837 3.95021536 -11.2718373 4.22262303 -18 4 C-12.23174747 0.94923533 -6.54078263 -0.32703913 0 0 Z " fill="#BC3730" transform="translate(314,369)"/>
<path d="M0 0 C0 0.66 0 1.32 0 2 C-2.97465763 3.70754834 -5.13860832 4.27317355 -8.5625 4.25 C-9.70912109 4.25773437 -9.70912109 4.25773437 -10.87890625 4.265625 C-13 4 -13 4 -16 2 C-10.61972975 0.80911014 -5.54708616 -0.2919519 0 0 Z " fill="#B6292C" transform="translate(280,377)"/>
<path d="M0 0 C0.33 0 0.66 0 1 0 C1.22786458 2.05078125 1.45572917 4.1015625 1.68359375 6.15234375 C1.81886614 8.01140229 1.81886614 8.01140229 3 9 C3.0979057 10.49738124 3.12974864 11.99942892 3.125 13.5 C3.12757813 14.3146875 3.13015625 15.129375 3.1328125 15.96875 C3 18 3 18 2 19 C-0.33297433 19.04092937 -2.66705225 19.04241723 -5 19 C-5 18.67 -5 18.34 -5 18 C-1.535 17.505 -1.535 17.505 2 17 C1.77183594 16.10796875 1.54367187 15.2159375 1.30859375 14.296875 C0.87740234 12.54117187 0.87740234 12.54117187 0.4375 10.75 C0.14746094 9.58984375 -0.14257812 8.4296875 -0.44140625 7.234375 C-0.95179964 4.27909017 -1.02996165 2.75565899 0 0 Z " fill="#B62B26" transform="translate(408,330)"/>
<path d="M0 0 C0.33 0 0.66 0 1 0 C1.03738281 0.65226563 1.07476562 1.30453125 1.11328125 1.9765625 C1.7120261 9.93634693 3.77051434 14.86887888 9 21 C8.34 21.33 7.68 21.66 7 22 C7 21.34 7 20.68 7 20 C6.401875 19.814375 5.80375 19.62875 5.1875 19.4375 C1.95409201 17.31268904 0.86621274 14.64450989 0 11 C-0.23264245 7.3173195 -0.17987153 3.68403549 0 0 Z " fill="#D0423D" transform="translate(226,252)"/>
<path d="M0 0 C0.33 0 0.66 0 1 0 C0.88541307 1.43836751 0.75790884 2.87570966 0.625 4.3125 C0.55539062 5.11300781 0.48578125 5.91351563 0.4140625 6.73828125 C0 9 0 9 -2 12 C-2.433125 13.5159375 -2.433125 13.5159375 -2.875 15.0625 C-4 18 -4 18 -6.125 19.375 C-6.74375 19.58125 -7.3625 19.7875 -8 20 C-7.02481062 18.03220715 -6.04029802 16.07492913 -5 14.140625 C-2.53930742 9.48837809 -1.10280253 5.14641181 0 0 Z " fill="#36110E" transform="translate(520,424)"/>
<path d="M0 0 C2.05078125 0.03255208 4.1015625 0.06510417 6.15234375 0.09765625 C6.15234375 0.42765625 6.15234375 0.75765625 6.15234375 1.09765625 C-3.25265625 3.07765625 -3.25265625 3.07765625 -12.84765625 5.09765625 C-12.51765625 4.10765625 -12.18765625 3.11765625 -11.84765625 2.09765625 C-10.89052734 2.00677734 -10.89052734 2.00677734 -9.9140625 1.9140625 C-8.67462891 1.78837891 -8.67462891 1.78837891 -7.41015625 1.66015625 C-6.58644531 1.57894531 -5.76273438 1.49773437 -4.9140625 1.4140625 C-2.62032942 1.06284817 -2.26022767 0.11946235 0 0 Z " fill="#B5332C" transform="translate(241.84765625,362.90234375)"/>
<path d="M0 0 C2.95839355 -0.02689449 5.91654427 -0.04678741 8.875 -0.0625 C9.71675781 -0.07087891 10.55851563 -0.07925781 11.42578125 -0.08789062 C12.23144531 -0.09111328 13.03710938 -0.09433594 13.8671875 -0.09765625 C14.98262939 -0.10551147 14.98262939 -0.10551147 16.12060547 -0.11352539 C18 0 18 0 20 1 C20 1.66 20 2.32 20 3 C19.33613281 2.83628906 18.67226563 2.67257813 17.98828125 2.50390625 C14.37116663 1.89396143 10.84139292 1.89204487 7.1875 1.9375 C6.49462891 1.94201172 5.80175781 1.94652344 5.08789062 1.95117188 C3.39188932 1.96286844 1.69593297 1.98080076 0 2 C0 1.34 0 0.68 0 0 Z " fill="#DC322D" transform="translate(240,233)"/>
<path d="M0 0 C0.66 0 1.32 0 2 0 C1.98839844 0.80824219 1.97679687 1.61648437 1.96484375 2.44921875 C1.95582031 3.51785156 1.94679688 4.58648437 1.9375 5.6875 C1.92589844 6.74324219 1.91429687 7.79898437 1.90234375 8.88671875 C1.99134575 11.72410262 2.35060162 14.2438919 3 17 C2.01 17 1.02 17 0 17 C0 11.39 0 5.78 0 0 Z " fill="#D0302D" transform="translate(347,250)"/>
<path d="M0 0 C-5.93891422 2.5915262 -10.54107286 3.40368295 -17 3 C-14.20261218 1.4932252 -11.59677568 0.51775885 -8.5 -0.1875 C-7.7471875 -0.36667969 -6.994375 -0.54585938 -6.21875 -0.73046875 C-3.85166621 -1.01801942 -2.25455985 -0.72248395 0 0 Z " fill="#B32C2A" transform="translate(394,352)"/>
<path d="M0 0 C0.66 0 1.32 0 2 0 C2 0.66 2 1.32 2 2 C3.32 2 4.64 2 6 2 C6.33 4.31 6.66 6.62 7 9 C4.03595495 6.19195732 1.55500981 3.81684226 0 0 Z " fill="#DE2423" transform="translate(382,238)"/>
<path d="M0 0 C0.33 0 0.66 0 1 0 C1.125 6.625 1.125 6.625 0 10 C-0.66 10 -1.32 10 -2 10 C-1.85950482 8.52031676 -1.71245174 7.04125484 -1.5625 5.5625 C-1.48128906 4.73878906 -1.40007812 3.91507813 -1.31640625 3.06640625 C-1 1 -1 1 0 0 Z " fill="#D32520" transform="translate(98,195)"/>
<path d="M0 0 C-3.16240582 2.10827055 -4.50657469 2.33817465 -8.1875 2.625 C-9.53908203 2.73714844 -9.53908203 2.73714844 -10.91796875 2.8515625 C-11.94857422 2.92503906 -11.94857422 2.92503906 -13 3 C-8.8341563 0.22277086 -4.9360889 -1.89849573 0 0 Z " fill="#340E0D" transform="translate(495,459)"/>
<path d="M0 0 C3.80984844 2.77079887 4.06840752 6.62868145 5 11 C4.34 11 3.68 11 3 11 C2.49632243 9.54293274 1.99717444 8.08429904 1.5 6.625 C1.2215625 5.81289062 0.943125 5.00078125 0.65625 4.1640625 C0 2 0 2 0 0 Z " fill="#DC281E" transform="translate(514,186)"/>
<path d="M0 0 C0.66 0.99 1.32 1.98 2 3 C-0.75 8.875 -0.75 8.875 -3 10 C-3 8.35 -3 6.7 -3 5 C-2.34 5 -1.68 5 -1 5 C-0.67 3.35 -0.34 1.7 0 0 Z " fill="#A31813" transform="translate(515,432)"/>
<path d="M0 0 C-0.33 0.99 -0.66 1.98 -1 3 C-4.3 3 -7.6 3 -11 3 C-11 2.67 -11 2.34 -11 2 C-9.5422647 1.664061 -8.08378894 1.33133376 -6.625 1 C-5.40683594 0.7215625 -5.40683594 0.7215625 -4.1640625 0.4375 C-2 0 -2 0 0 0 Z " fill="#B12D2F" transform="translate(263,380)"/>
</svg>
