<?xml version="1.0" encoding="UTF-8"?>
<svg version="1.1" xmlns="http://www.w3.org/2000/svg" width="600" height="400">
<path d="M0 0 C198 0 396 0 600 0 C600 132 600 264 600 400 C402 400 204 400 0 400 C0 268 0 136 0 0 Z " fill="#292929" transform="translate(0,0)"/>
<path d="M0 0 C2.28527842 -0.00067587 4.57055678 -0.00164825 6.85583496 -0.00289917 C11.61597385 -0.00436281 16.37609381 -0.00226489 21.13623047 0.00244141 C27.18737038 0.00813784 33.2384659 0.00485164 39.28960419 -0.00113106 C43.9998202 -0.00477292 48.71002597 -0.00358156 53.42024231 -0.00100327 C55.64939886 -0.00034399 57.87855639 -0.00112675 60.10771179 -0.00348282 C73.08024273 -0.0141905 85.96262641 0.25903504 98.90625 1.1328125 C101.1301455 1.26538121 103.35409187 1.39710435 105.578125 1.52734375 C116.09367258 2.22089007 126.5150087 3.15578948 136.90625 4.9453125 C137.77088867 5.08622314 138.63552734 5.22713379 139.52636719 5.37231445 C150.01936151 7.33080218 158.99660364 12.02714168 165.40625 20.6328125 C176.46180112 37.14403776 177.48645179 56.85840908 178.90625 76.1328125 C178.99793457 77.36306152 179.08961914 78.59331055 179.18408203 79.86083984 C189.26278609 218.72405318 189.26278609 218.72405318 165.09375 250.5703125 C155.45068156 261.6499647 144.16872923 264.99905577 129.90625 267.1328125 C131.00324219 266.9884375 132.10023438 266.8440625 133.23046875 266.6953125 C134.68487452 266.50764724 136.13930281 266.32015644 137.59375 266.1328125 C138.6755957 265.98972656 138.6755957 265.98972656 139.77929688 265.84375 C143.51617871 265.36597515 147.12916531 265.01361456 150.90625 265.1328125 C150.90625 266.7828125 150.90625 268.4328125 150.90625 270.1328125 C145.45894008 272.35878964 140.32837423 272.55933749 134.53125 272.7578125 C133.60441406 272.79648437 132.67757812 272.83515625 131.72265625 272.875 C129.45082704 272.96868368 127.17856672 273.05181059 124.90625 273.1328125 C123.91625 277.7528125 122.92625 282.3728125 121.90625 287.1328125 C138.50959815 285.8937597 138.50959815 285.8937597 154.90625 283.1328125 C155.56625 284.4528125 156.22625 285.7728125 156.90625 287.1328125 C153.03808551 289.7787366 149.91327694 290.68989913 145.28515625 291.30078125 C144.01994141 291.47158203 142.75472656 291.64238281 141.45117188 291.81835938 C140.79689209 291.90077881 140.1426123 291.98319824 139.46850586 292.06811523 C137.47659211 292.3193235 135.48741339 292.58684837 133.49804688 292.85742188 C127.92401322 293.59211639 122.53643644 294.23785528 116.90625 294.1328125 C114.472767 289.57222027 115.11837618 286.63007191 116.28125 281.6953125 C117.36655364 277.01906944 117.98481923 272.92426818 117.90625 268.1328125 C116.73497559 268.21583618 116.73497559 268.21583618 115.54003906 268.30053711 C111.74593983 268.56482599 107.95128029 268.81982929 104.15625 269.0703125 C103.45494965 269.11705109 102.75364929 269.16378967 102.03109741 269.21194458 C93.33594525 269.78301902 84.65408032 270.20799209 75.94140625 270.3828125 C74.71854416 270.40862144 74.71854416 270.40862144 73.47097778 270.43495178 C69.48939363 270.51578138 65.50859102 270.57763659 61.52636719 270.61499023 C60.06574791 270.64004016 58.60513545 270.66549199 57.14453125 270.69140625 C55.86618408 270.70486084 54.58783691 270.71831543 53.27075195 270.73217773 C47.96186918 271.36434352 44.58563315 274.19487835 40.59375 277.5703125 C39.89636719 278.14652344 39.19898438 278.72273438 38.48046875 279.31640625 C36.46962964 281.23599817 36.46962964 281.23599817 36.90625 285.1328125 C39.93777013 286.64857256 42.62944033 286.64765321 45.90625 286.1328125 C53.13021034 283.6522231 58.35254453 279.2827934 63.77734375 274.0234375 C65.90625 272.1328125 65.90625 272.1328125 68.90625 271.1328125 C67.80654033 277.71620957 62.19299266 282.45586788 57.03515625 286.23828125 C50.28957029 290.58304777 45.04749965 293.20402956 36.90625 292.1328125 C34.03595131 290.33887582 32.41493362 289.15017974 30.90625 286.1328125 C30.68157169 284.59612385 30.49828195 283.05313196 30.34375 281.5078125 C30.25996094 280.69054687 30.17617188 279.87328125 30.08984375 279.03125 C30.02925781 278.40476562 29.96867188 277.77828125 29.90625 277.1328125 C16.5237198 284.96676154 16.5237198 284.96676154 4.28125 294.4453125 C1.47744255 296.43749148 -0.70217975 296.81731759 -4.09375 297.1328125 C-4.09375 295.8128125 -4.09375 294.4928125 -4.09375 293.1328125 C-2.40625 291.45703125 -2.40625 291.45703125 -0.09375 289.8203125 C0.7209375 289.21574219 1.535625 288.61117188 2.375 287.98828125 C3.2103125 287.37597656 4.045625 286.76367188 4.90625 286.1328125 C10.82212005 281.80765553 10.82212005 281.80765553 14.03125 275.4453125 C13.91310357 272.31443203 13.64685753 270.69252945 11.90625 268.1328125 C7.12002714 268.27784956 4.73887405 270.65621798 1.6171875 273.96875 C-2.56908435 279.26371485 -5.55804709 285.34724229 -6.09375 292.1328125 C-7.08375 292.4628125 -8.07375 292.7928125 -9.09375 293.1328125 C-11.86417109 290.36239141 -11.49171106 288.36747445 -11.71875 284.5078125 C-11.79351562 283.31929688 -11.86828125 282.13078125 -11.9453125 280.90625 C-11.99429688 279.99101562 -12.04328125 279.07578125 -12.09375 278.1328125 C-12.99867188 278.85597656 -12.99867188 278.85597656 -13.921875 279.59375 C-15.12070313 280.54121094 -15.12070313 280.54121094 -16.34375 281.5078125 C-17.13265625 282.13429688 -17.9215625 282.76078125 -18.734375 283.40625 C-22.31648957 286.02759874 -24.14988247 287.14937158 -28.65625 287.0703125 C-32.09375 286.1328125 -32.09375 286.1328125 -34.03125 283.8203125 C-35.09375 281.1328125 -35.09375 281.1328125 -35.09375 277.1328125 C-37.75532432 279.68792385 -40.15552374 282.37867634 -42.53125 285.1953125 C-46.30921914 289.50267858 -48.89448174 291.82946515 -54.71875 292.6328125 C-58.09375 292.1328125 -58.09375 292.1328125 -60.09375 290.1953125 C-61.26611914 286.60493201 -60.99124308 284.30113738 -60.421875 280.625 C-59.87494756 276.4709559 -60.01517628 272.31468061 -60.09375 268.1328125 C-60.80917969 268.08382813 -61.52460938 268.03484375 -62.26171875 267.984375 C-69.94520866 267.40786476 -77.49427564 266.39530582 -85.09375 265.1328125 C-86.11269076 270.98169293 -86.21173453 276.64200419 -86.15625 282.5703125 C-86.15173828 283.49263672 -86.14722656 284.41496094 -86.14257812 285.36523438 C-86.13088938 287.62116298 -86.11450455 289.87695217 -86.09375 292.1328125 C-87.41375 292.7928125 -88.73375 293.4528125 -90.09375 294.1328125 C-93.20787288 291.01868962 -93.24695899 287.84297277 -93.28125 283.5703125 C-93.22322471 275.05219956 -92.07461526 266.58401763 -91.09375 258.1328125 C-92.88232422 258.27589844 -92.88232422 258.27589844 -94.70703125 258.421875 C-96.27339636 258.53442818 -97.83980506 258.64637584 -99.40625 258.7578125 C-100.19193359 258.82226562 -100.97761719 258.88671875 -101.78710938 258.953125 C-102.9230957 259.03046875 -102.9230957 259.03046875 -104.08203125 259.109375 C-104.77852783 259.16174316 -105.47502441 259.21411133 -106.19262695 259.26806641 C-108.09375 259.1328125 -108.09375 259.1328125 -111.09375 257.1328125 C-110.09375 254.1328125 -110.09375 254.1328125 -108.03125 252.9453125 C-107.0721875 252.543125 -107.0721875 252.543125 -106.09375 252.1328125 C-106.78210938 251.16794922 -106.78210938 251.16794922 -107.484375 250.18359375 C-134.36985382 210.58964279 -125.17638266 133.33041886 -122.09375 87.1328125 C-122.02929688 86.12943848 -121.96484375 85.12606445 -121.8984375 84.09228516 C-118.31591783 29.91496799 -118.31591783 29.91496799 -101.1484375 13.81640625 C-90.68457093 5.24240151 -76.04373489 4.47883862 -63.09375 3.1328125 C-62.27664551 3.04644531 -61.45954102 2.96007812 -60.61767578 2.87109375 C-57.9854261 2.59637229 -55.35240316 2.33122191 -52.71875 2.0703125 C-51.93056885 1.99095459 -51.1423877 1.91159668 -50.33032227 1.82983398 C-33.55857698 0.23881855 -16.83464454 -0.01779309 0 0 Z " fill="#FD0000" transform="translate(271.09375,64.8671875)"/>
<path d="M0 0 C0 7.92 0 15.84 0 24 C-11.27286585 28.50914634 -11.27286585 28.50914634 -15.42578125 30.0078125 C-16.37122803 30.34917236 -17.3166748 30.69053223 -18.29077148 31.04223633 C-19.28794189 31.39954834 -20.2851123 31.75686035 -21.3125 32.125 C-22.39152588 32.51260498 -23.47055176 32.90020996 -24.58227539 33.29956055 C-33.87777238 36.62522808 -43.20785721 39.84666654 -52.54589844 43.05053711 C-63.69946462 46.88208914 -74.82110889 50.80159385 -85.9387207 54.73608398 C-87.35367561 55.23682424 -88.76863325 55.7375568 -90.18359375 56.23828125 C-90.865392 56.47959274 -91.54719025 56.72090424 -92.24964905 56.9695282 C-98.64470375 59.23133582 -105.05049999 61.4618589 -111.45922852 63.68457031 C-115.1995478 64.98974123 -118.91771684 66.33673883 -122.6171875 67.75390625 C-123.72682861 68.17857178 -123.72682861 68.17857178 -124.85888672 68.61181641 C-126.235466 69.14267058 -127.60972052 69.6796148 -128.98095703 70.22412109 C-132.27259673 71.49918174 -134.39611775 72 -138 72 C-138 64.41 -138 56.82 -138 49 C-129.99185067 45.79674027 -121.96987999 42.71809266 -113.875 39.75 C-113.22203949 39.51011353 -112.56907898 39.27022705 -111.89633179 39.02307129 C-102.09890643 35.4289803 -92.25306739 32.02613719 -82.33618164 28.77392578 C-75.68487564 26.58576767 -69.11394887 24.23786862 -62.55834961 21.77978516 C-54.14882452 18.64515855 -45.65460981 15.76149513 -37.16430664 12.85449219 C-27.57503061 9.563431 -18.02888318 6.16312362 -8.50341797 2.69189453 C-7.52775879 2.33724121 -6.55209961 1.98258789 -5.546875 1.6171875 C-4.26055176 1.14708252 -4.26055176 1.14708252 -2.94824219 0.66748047 C-1 0 -1 0 0 0 Z " fill="#F4F3F2" transform="translate(369,200)"/>
<path d="M0 0 C0.61746094 0.3609375 1.23492187 0.721875 1.87109375 1.09375 C1.87109375 1.75375 1.87109375 2.41375 1.87109375 3.09375 C2.53109375 3.09375 3.19109375 3.09375 3.87109375 3.09375 C10.6240394 15.67033685 10.6240394 15.67033685 10.87109375 22.09375 C10.95359375 23.310625 11.03609375 24.5275 11.12109375 25.78125 C10.99818583 33.66272045 9.0781542 42.04684109 3.87109375 48.09375 C3.21109375 48.09375 2.55109375 48.09375 1.87109375 48.09375 C1.87109375 48.75375 1.87109375 49.41375 1.87109375 50.09375 C-4.48801588 53.67797543 -10.06982944 55.97802561 -17.453125 54.6875 C-24.179184 52.76903156 -28.94129495 49.58285157 -32.671875 43.6328125 C-37.20404868 34.36534251 -37.71117897 24.02392772 -35.4296875 14.03125 C-32.82213636 6.81372448 -28.75225646 1.12417511 -21.81640625 -2.34375 C-13.45010774 -5.56155712 -7.7362085 -4.23901836 0 0 Z " fill="#F4F3F2" transform="translate(356.12890625,131.90625)"/>
<path d="M0 0 C6.20459721 4.2005576 9.91315067 10.53932145 11.70703125 17.71484375 C13.39845438 28.3814761 12.59824873 38.7321147 6.453125 47.82421875 C2.04540588 53.18495821 -3.02602542 55.36798231 -9.796875 56.44921875 C-16.58507998 56.88784123 -21.56986732 54.38258079 -26.671875 50.07421875 C-33.83195165 41.48212677 -35.40750305 34.06388581 -35.2421875 23.05859375 C-34.383137 14.95897475 -30.92296066 6.96156935 -24.859375 1.44921875 C-16.7458172 -3.59006129 -8.60381888 -4.2868678 0 0 Z " fill="#F4F3F2" transform="translate(270.859375,130.55078125)"/>
<path d="M0 0 C1.32 0.33 2.64 0.66 4 1 C3.25479989 8.19154285 2.19345877 15.29002214 1.01757812 22.421875 C0.88673828 23.22882813 0.75589844 24.03578125 0.62109375 24.8671875 C0.5017749 25.59019043 0.38245605 26.31319336 0.25952148 27.05810547 C-0.06623286 29.16906722 -0.06623286 29.16906722 0 32 C0.56847656 31.31292969 1.13695312 30.62585938 1.72265625 29.91796875 C9.86556927 20.41563786 9.86556927 20.41563786 16 19 C19.4560344 19.78546236 21.92742497 21.09839496 24 24 C25.05787889 28.05520241 24.904044 30.95919729 24 35 C34.32531094 29.37979339 34.32531094 29.37979339 41 20 C43.51002993 17.17621633 45.88638953 15.20718334 49.6875 14.5 C52.45966758 15.09938758 53.26370962 15.79108044 55 18 C55.50409977 21.17214004 54.99999284 23.9646682 54 27 C51.25978257 30.75864048 47.76935869 33.42707332 44.0625 36.1875 C43.381875 36.785625 42.70125 37.38375 42 38 C42 39.32 42 40.64 42 42 C45.03152013 43.51576006 47.72319033 43.51484071 51 43 C58.22396034 40.5194106 63.44629453 36.1499809 68.87109375 30.890625 C71 29 71 29 74 28 C72.90029033 34.58339707 67.28674266 39.32305538 62.12890625 43.10546875 C55.38332029 47.45023527 50.14124965 50.07121706 42 49 C39.12970131 47.20606332 37.50868362 46.01736724 36 43 C35.77532169 41.46331135 35.59203195 39.92031946 35.4375 38.375 C35.35371094 37.55773437 35.26992188 36.74046875 35.18359375 35.8984375 C35.12300781 35.27195312 35.06242187 34.64546875 35 34 C21.6174698 41.83394904 21.6174698 41.83394904 9.375 51.3125 C6.57119255 53.30467898 4.39157025 53.68450509 1 54 C1 52.68 1 51.36 1 50 C2.6875 48.32421875 2.6875 48.32421875 5 46.6875 C5.8146875 46.08292969 6.629375 45.47835937 7.46875 44.85546875 C8.3040625 44.24316406 9.139375 43.63085938 10 43 C15.91587005 38.67484303 15.91587005 38.67484303 19.125 32.3125 C19.00685357 29.18161953 18.74060753 27.55971695 17 25 C12.21377714 25.14503706 9.83262405 27.52340548 6.7109375 30.8359375 C2.52466565 36.13090235 -0.46429709 42.21442979 -1 49 C-1.99 49.33 -2.98 49.66 -4 50 C-6.77042109 47.22957891 -6.39796106 45.23466195 -6.625 41.375 C-6.69976562 40.18648438 -6.77453125 38.99796875 -6.8515625 37.7734375 C-6.90054688 36.85820312 -6.94953125 35.94296875 -7 35 C-7.60328125 35.48210937 -8.2065625 35.96421875 -8.828125 36.4609375 C-9.62734375 37.09257812 -10.4265625 37.72421875 -11.25 38.375 C-12.03890625 39.00148438 -12.8278125 39.62796875 -13.640625 40.2734375 C-17.22273957 42.89478624 -19.05613247 44.01655908 -23.5625 43.9375 C-27 43 -27 43 -28.9375 40.6875 C-30 38 -30 38 -30 34 C-32.66157432 36.55511135 -35.06177374 39.24586384 -37.4375 42.0625 C-41.21546914 46.36986608 -43.80073174 48.69665265 -49.625 49.5 C-53 49 -53 49 -54.75390625 47.13671875 C-56.62448104 42.4280305 -55.89380654 38.26872628 -55.3125 33.3125 C-55.22033203 32.35021484 -55.12816406 31.38792969 -55.03320312 30.39648438 C-54.27899946 23.27899946 -54.27899946 23.27899946 -52 21 C-49.875 21.375 -49.875 21.375 -48 22 C-47.7959012 27.51066758 -48.32990893 32.32765838 -49.5625 37.703125 C-50.12474141 40.2651973 -50.12474141 40.2651973 -50 44 C-41.79416092 41.43567529 -36.94158861 35.76457639 -32.9375 28.296875 C-31.20103791 24.90502576 -29.57853914 21.46785317 -28 18 C-27.34 18 -26.68 18 -26 18 C-26.03480469 18.85722656 -26.06960937 19.71445312 -26.10546875 20.59765625 C-26.26218361 27.21699334 -26.253889 32.17011554 -23 38 C-16.65887798 36.78574259 -11.24374046 33.96111411 -7 29 C-4.95400351 22.58829864 -4.12242056 15.91790786 -3.14453125 9.27148438 C-3.02464844 8.50513672 -2.90476562 7.73878906 -2.78125 6.94921875 C-2.67876953 6.26174561 -2.57628906 5.57427246 -2.47070312 4.8659668 C-2 3 -2 3 0 0 Z " fill="#F4F3F2" transform="translate(266,308)"/>
<path d="M0 0 C1.37562854 1.28965176 2.70766393 2.62689293 4 4 C9.17766394 6.52568972 15.33675404 6.8605913 21 6 C21.66 5.01 22.32 4.02 23 3 C24.32 3.33 25.64 3.66 27 4 C28.53723694 7.98052743 27.46987962 11.55844612 26.5625 15.5625 C25.39597659 20.72892065 25.39597659 20.72892065 25 26 C37.15220957 21.47270624 41.65308346 11.10338413 47 0 C47.66 0 48.32 0 49 0 C49.04898438 1.19238281 49.09796875 2.38476562 49.1484375 3.61328125 C49.22347604 5.17971068 49.2990234 6.74611579 49.375 8.3125 C49.4059375 9.09818359 49.436875 9.88386719 49.46875 10.69335938 C49.50742188 11.45068359 49.54609375 12.20800781 49.5859375 12.98828125 C49.6173584 13.68477783 49.6487793 14.38127441 49.68115234 15.09887695 C49.92118253 17.32532739 49.92118253 17.32532739 52 20 C60.78500248 18.9664703 66.81550087 11.72005058 73 6 C73.68359375 7.7578125 73.68359375 7.7578125 74 10 C69.9434101 16.7930692 62.27828573 22.9339505 55 26 C51.4375 26 51.4375 26 48 25 C45.83577992 21.78857666 45 19.87553592 45 16 C44.34 16 43.68 16 43 16 C42.7525 16.53625 42.505 17.0725 42.25 17.625 C38.91443582 23.96257194 35.61221603 28.08865115 29 31 C25.1875 31.625 25.1875 31.625 22 31 C19.36029586 27.90659671 18.98728676 26.33157501 19.14453125 22.23046875 C19.34876395 20.87989769 19.5718932 19.53206742 19.8125 18.1875 C19.97588867 17.14819336 19.97588867 17.14819336 20.14257812 16.08789062 C20.4120177 14.38924986 20.70378544 12.69417681 21 11 C19.824375 11.20625 18.64875 11.4125 17.4375 11.625 C13.09954633 12.18947526 10.09528583 11.45041373 6 10 C6.268125 10.804375 6.53625 11.60875 6.8125 12.4375 C7.08458865 17.60718442 4.95482572 20.86324399 2 25 C-2.84693367 29.61049788 -7.27520632 31.64606349 -14 32 C-17.57387602 30.41161066 -18.81089572 29.28365642 -21 26 C-21.74520439 18.8748001 -19.22727276 13.79977695 -14.96484375 8.2734375 C-6.5554132 -1.45675849 -6.5554132 -1.45675849 0 0 Z " fill="#F4F3F2" transform="translate(97,326)"/>
<path d="M0 0 C0.33 0.99 0.66 1.98 1 3 C6.80835902 5.00652402 12.87427789 5.93076343 19 5 C21.63516042 3.20808542 21.63516042 3.20808542 23 1 C24.55078125 2.08203125 24.55078125 2.08203125 26 4 C25.85546875 7.13671875 25.85546875 7.13671875 25.1875 10.6875 C24.97480469 11.86699219 24.76210938 13.04648437 24.54296875 14.26171875 C24.36378906 15.16535156 24.18460938 16.06898438 24 17 C24.36351562 16.48050781 24.72703125 15.96101563 25.1015625 15.42578125 C28.7291855 10.39361704 32.33371495 5.83314252 38 3 C44.53333333 2.76666667 44.53333333 2.76666667 47 4 C47 5.32 47 6.64 47 8 C46.00419922 8.12955078 46.00419922 8.12955078 44.98828125 8.26171875 C38.03299037 9.36847306 34.91666841 10.98848609 30.69921875 16.7890625 C27.46825879 21.57355188 25.57545992 26.46667736 24 32 C21.525 32.495 21.525 32.495 19 33 C15.87153664 26.74307329 18.10011808 16.74911444 19 10 C17.80375 10.20625 16.6075 10.4125 15.375 10.625 C11.4423982 11.13581838 8.6878757 10.56734717 5 9 C5.12375 10.5159375 5.12375 10.5159375 5.25 12.0625 C4.84153745 18.4957852 2.09948477 22.2365008 -2.5625 26.375 C-6.20770051 29.41131401 -9.29181788 30.17938176 -14 30.3125 C-15.299375 30.36857422 -15.299375 30.36857422 -16.625 30.42578125 C-19 30 -19 30 -20.78125 28.2421875 C-22.82659589 24.47927551 -22.71452152 21.16692927 -22 17 C-19.36899585 10.41707605 -15.11180331 4.53857639 -9.625 0.0625 C-6.11455705 -1.35839357 -3.64404373 -0.78597022 0 0 Z " fill="#F4F3F2" transform="translate(520,327)"/>
<path d="M0 0 C0.495 1.98 0.495 1.98 1 4 C-3.65624151 7.51869183 -8.18878592 7.7364442 -13.8125 8.1875 C-15.10897461 8.3102832 -15.10897461 8.3102832 -16.43164062 8.43554688 C-21.64073978 8.90338295 -26.77113693 9.07894915 -32 9 C-32.33 12.96 -32.66 16.92 -33 21 C-20.47658493 20.27848878 -20.47658493 20.27848878 -8 19 C-8 20.65 -8 22.3 -8 24 C-13.44730992 26.22597714 -18.57787577 26.42652499 -24.375 26.625 C-25.30183594 26.66367187 -26.22867187 26.70234375 -27.18359375 26.7421875 C-29.45542296 26.83587118 -31.72768328 26.91899809 -34 27 C-34.99 31.62 -35.98 36.24 -37 41 C-20.39665185 39.7609472 -20.39665185 39.7609472 -4 37 C-3.34 38.32 -2.68 39.64 -2 41 C-5.86816449 43.6459241 -8.99297306 44.55708663 -13.62109375 45.16796875 C-15.51891602 45.42416992 -15.51891602 45.42416992 -17.45507812 45.68554688 C-18.4364978 45.80917603 -18.4364978 45.80917603 -19.43774414 45.93530273 C-21.42965789 46.186511 -23.41883661 46.45403587 -25.40820312 46.72460938 C-30.98223678 47.45930389 -36.36981356 48.10504278 -42 48 C-43.77867425 44.26273867 -44.17464093 42.0200818 -43.35546875 37.97265625 C-43.08283203 36.54626831 -43.08283203 36.54626831 -42.8046875 35.09106445 C-42.60101563 34.09163818 -42.39734375 33.09221191 -42.1875 32.0625 C-40.67032452 24.18099649 -39.54804977 16.68354547 -39.46875 8.64453125 C-39 6 -39 6 -37.640625 3.64453125 C-33.39876943 1.00278392 -29.12764623 1.66320747 -24.25 1.875 C-15.9722094 2.17379725 -7.98165404 -0.49885338 0 0 Z " fill="#F4F3F2" transform="translate(430,311)"/>
<path d="M0 0 C2.475 0.495 2.475 0.495 5 1 C4.69902288 6.53582918 1.19490226 9.80601083 -2.25 13.8125 C-12.18852998 25.45934201 -12.18852998 25.45934201 -14.6875 40.1875 C-14.78848557 50.74437662 -14.78848557 50.74437662 -17 55 C-18.32 55 -19.64 55 -21 55 C-21.495 54.505 -21.495 54.505 -22 54 C-21.90637019 52.31919385 -21.74777412 50.6419354 -21.5625 48.96875 C-20.05448897 37.56934397 -20.05448897 37.56934397 -22.65234375 26.7578125 C-24.97723408 24.58791486 -27.40522562 22.83369314 -30 21 C-31.57863873 19.23761808 -33.10175743 17.42376876 -34.5625 15.5625 C-35.22378906 14.73878906 -35.88507812 13.91507812 -36.56640625 13.06640625 C-38 11 -38 11 -38 9 C-35.2890625 8.20703125 -35.2890625 8.20703125 -32 8 C-29.5859375 9.94921875 -29.5859375 9.94921875 -27.375 12.6875 C-26.64023437 13.57824219 -25.90546875 14.46898437 -25.1484375 15.38671875 C-24.43945312 16.24910156 -23.73046875 17.11148437 -23 18 C-21.68373672 19.35018759 -20.35614628 20.68987679 -19 22 C-15.57069418 20.56772467 -13.82826575 18.87336506 -11.58203125 15.9375 C-10.96779297 15.14085937 -10.35355469 14.34421875 -9.72070312 13.5234375 C-9.09099609 12.69070313 -8.46128906 11.85796875 -7.8125 11 C-7.17119141 10.16726563 -6.52988281 9.33453125 -5.86914062 8.4765625 C-2.6568538 4.41609539 -2.6568538 4.41609539 0 0 Z " fill="#F4F3F2" transform="translate(70,304)"/>
<path d="M0 0 C-0.33 1.65 -0.66 3.3 -1 5 C-1.68964844 4.97679687 -2.37929687 4.95359375 -3.08984375 4.9296875 C-9.42168979 4.80808826 -14.87469929 5.39336375 -21 7 C-23.80664246 15.79414637 -24.15011022 24.37690579 -24.0625 33.5625 C-24.05798828 34.47580078 -24.05347656 35.38910156 -24.04882812 36.33007812 C-24.0371874 38.55345738 -24.02083851 40.77669121 -24 43 C-25.32 43.66 -26.64 44.32 -28 45 C-31.11412288 41.88587712 -31.15320899 38.71016027 -31.1875 34.4375 C-31.12947471 25.91938706 -29.98086526 17.45120513 -29 9 C-30.19238281 9.09539062 -31.38476562 9.19078125 -32.61328125 9.2890625 C-34.17964636 9.40161568 -35.74605506 9.51356334 -37.3125 9.625 C-38.09818359 9.68945312 -38.88386719 9.75390625 -39.69335938 9.8203125 C-40.45068359 9.871875 -41.20800781 9.9234375 -41.98828125 9.9765625 C-42.68477783 10.02893066 -43.38127441 10.08129883 -44.09887695 10.13525391 C-46 10 -46 10 -49 8 C-48.67 7.01 -48.34 6.02 -48 5 C-41.25648673 3.94702617 -34.51193628 2.9281089 -27.75 2 C-23.85380428 1.45694617 -20.06550828 0.82887707 -16.25 -0.125 C-11.2459811 -1.3173272 -4.72946688 -2.36473344 0 0 Z " fill="#F4F3F2" transform="translate(209,314)"/>
<path d="M0 0 C0.99 0.33 1.98 0.66 3 1 C2.42978066 6.3503559 1.79265639 11.67787852 1 17 C1.36351562 16.40832031 1.72703125 15.81664062 2.1015625 15.20703125 C5.63513593 9.65297866 8.97108868 5.01445566 15 2 C21.47058824 1.64705882 21.47058824 1.64705882 25 4 C24.67 4.99 24.34 5.98 24 7 C22.1796875 7.51953125 22.1796875 7.51953125 19.875 7.8125 C14.61019357 8.86546129 11.34817709 10.77511819 8 15 C5.55438107 19.42417005 3.69015566 24.02099943 2.02734375 28.7890625 C1.68832031 29.51867187 1.34929687 30.24828125 1 31 C-1.625 31.8125 -1.625 31.8125 -4 32 C-6.1858792 25.4423624 -4.89612466 18.36289814 -4.0625 11.625 C-3.93234497 10.57179565 -3.93234497 10.57179565 -3.79956055 9.49731445 C-3.41161052 6.53234455 -2.94821978 3.84465934 -2 1 C-1.34 0.67 -0.68 0.34 0 0 Z " fill="#F4F3F2" transform="translate(473,328)"/>
<path d="M0 0 C0.66 0.33 1.32 0.66 2 1 C1.67 5.95 1.34 10.9 1 16 C1.886875 14.5975 2.77375 13.195 3.6875 11.75 C9.14569386 3.67695048 9.14569386 3.67695048 14.20703125 2.4765625 C20.37060676 1.58040451 20.37060676 1.58040451 24 4 C24 4.99 24 5.98 24 7 C23.34773438 7.08636719 22.69546875 7.17273438 22.0234375 7.26171875 C16.32314912 8.17813679 11.68986213 9.2495787 8 14 C5.33374557 18.49454318 3.30509625 23.19269258 1.4375 28.0625 C0 31 0 31 -2.1875 31.9375 C-3.0846875 31.9684375 -3.0846875 31.9684375 -4 32 C-8.63340973 24.88949814 -4.99504082 11.97893007 -3.6953125 4.07421875 C-3 2 -3 2 0 0 Z " fill="#F4F3F2" transform="translate(441,328)"/>
<path d="M0 0 C0.89267578 0.00322266 1.78535156 0.00644531 2.70507812 0.00976562 C4.09823242 0.02233398 4.09823242 0.02233398 5.51953125 0.03515625 C6.45990234 0.03966797 7.40027344 0.04417969 8.36914062 0.04882812 C10.69016837 0.06060999 13.01106769 0.07706067 15.33203125 0.09765625 C14.33203125 2.09765625 14.33203125 2.09765625 12.5625 2.94921875 C9.76682116 4.38867511 7.90014314 6.28605664 5.64453125 8.47265625 C0.01641431 13.61245128 -4.89130658 16.73217281 -12.54296875 17.47265625 C-15.66796875 17.09765625 -15.66796875 17.09765625 -18.66796875 15.09765625 C-18.24098234 10.28124959 -16.38653249 8.45166203 -12.79296875 5.34765625 C-11.46652344 4.17976563 -11.46652344 4.17976563 -10.11328125 2.98828125 C-6.70048052 0.34963021 -4.18503998 -0.02665631 0 0 Z " fill="#393131" transform="translate(325.66796875,334.90234375)"/>
<path d="M0 0 C5.53772071 2.28731942 5.53772071 2.28731942 7.5 5.3125 C8.1691508 8.90918556 7.57781816 10.70716211 6 14 C3.48383083 16.83875496 1.15583815 18.8961079 -2 21 C-4.33199388 21.07905064 -6.66832622 21.08798769 -9 21 C-10.31145238 16.25859526 -10.22946532 13.75386541 -7.875 9.375 C-5.63511707 5.70460361 -3.21099323 2.84402257 0 0 Z " fill="#322E2E" transform="translate(513,331)"/>
<path d="M0 0 C3.375 0.3125 3.375 0.3125 7 1 C9.35620437 4.53430656 9.48991613 5.83571287 9 10 C6.52618453 14.75733745 3.75733745 17.52618453 -1 20 C-4.375 20.25 -4.375 20.25 -7 20 C-8.9168252 17.33774278 -9.01476803 16.10759568 -8.5625 12.8125 C-6.94271766 7.81182968 -3.34982558 3.94992802 0 0 Z " fill="#312D2D" transform="translate(90,332)"/>
<path d="M0 0 C5.28 0.66 10.56 1.32 16 2 C14.18639175 7.44082474 13.2608328 9.29053697 9.5625 13.25 C8.78003906 14.10078125 7.99757812 14.9515625 7.19140625 15.828125 C3.93509335 19.0554155 2.69071857 20 -2 20 C-3.65654322 12.86918482 -1.65709098 7.02606577 0 0 Z " fill="#3A3232" transform="translate(218,332)"/>
<path d="M0 0 C14.78132118 -0.18451025 14.78132118 -0.18451025 21 1 C19.71540123 4.8537963 18.01335898 5.76037357 14.75 8.125 C13.31914062 9.18074219 13.31914062 9.18074219 11.859375 10.2578125 C9.1080621 11.93415888 7.16696153 12.61857763 4 13 C0.25474201 9.25474201 0.31090051 5.01729091 0 0 Z " fill="#3C3333" transform="translate(239,334)"/>
<path d="M0 0 C0.99 0 1.98 0 3 0 C3.3125 2.1875 3.3125 2.1875 3 5 C0.3183199 8.12862678 -2.63600602 10.63274497 -6 13 C-5.49890261 7.73847744 -3.79035827 3.79035827 0 0 Z " fill="#CB2020" transform="translate(313,328)"/>
<path d="M0 0 C3.3 0 6.6 0 10 0 C6.59287819 3.97497544 2.67239145 5.86793788 -2 8 C-1.34 5.36 -0.68 2.72 0 0 Z " fill="#4F3C3C" transform="translate(291,336)"/>
<path d="M0 0 C-0.33 0.66 -0.66 1.32 -1 2 C-3.59549602 2.64591111 -6.12044572 3.1713093 -8.75 3.625 C-9.46671875 3.7590625 -10.1834375 3.893125 -10.921875 4.03125 C-14.65280711 4.70336645 -18.20815577 5.16421373 -22 5 C-21 3 -21 3 -19.28173828 2.38989258 C-18.18708252 2.14468872 -18.18708252 2.14468872 -17.0703125 1.89453125 C-16.27496094 1.71599609 -15.47960937 1.53746094 -14.66015625 1.35351562 C-13.40525391 1.08571289 -13.40525391 1.08571289 -12.125 0.8125 C-11.29613281 0.62236328 -10.46726562 0.43222656 -9.61328125 0.23632812 C-3.38267918 -1.12755973 -3.38267918 -1.12755973 0 0 Z " fill="#6C4C4C" transform="translate(422,328)"/>
<path d="M0 0 C0.598125 0.20625 1.19625 0.4125 1.8125 0.625 C1.8125 1.945 1.8125 3.265 1.8125 4.625 C-0.4975 4.625 -2.8075 4.625 -5.1875 4.625 C-5.1875 3.635 -5.1875 2.645 -5.1875 1.625 C-2.1875 -0.375 -2.1875 -0.375 0 0 Z " fill="#DE2C2C" transform="translate(282.1875,332.375)"/>
<path d="M0 0 C1.98 0 3.96 0 6 0 C6.33 0.99 6.66 1.98 7 3 C6.67 3.66 6.34 4.32 6 5 C4.68 5 3.36 5 2 5 C2 4.34 2 3.68 2 3 C1.01 2.67 0.02 2.34 -1 2 C-0.67 1.34 -0.34 0.68 0 0 Z " fill="#E22727" transform="translate(174,322)"/>
<path d="M0 0 C0.80824219 0.10183594 1.61648438 0.20367187 2.44921875 0.30859375 C3.06410156 0.39238281 3.67898438 0.47617187 4.3125 0.5625 C4.3125 0.8925 4.3125 1.2225 4.3125 1.5625 C-2.1225 2.0575 -2.1225 2.0575 -8.6875 2.5625 C-6.80760684 -1.19728632 -3.63897564 -0.474649 0 0 Z " fill="#8F5E5E" transform="translate(408.6875,330.4375)"/>
</svg>
